<svg xmlns="http://www.w3.org/2000/svg" width="24" height="24" viewBox="0 0 24 24">
    <g fill="none" fill-rule="evenodd">
        <g fill="#fff" fill-rule="nonzero">
            <path d="M12 1.1c2.995 0 5.708 1.208 7.679 3.164l.03.027.025.028C21.691 6.29 22.9 9.004 22.9 12c0 2.992-1.205 5.702-3.157 7.672-.01.013-.022.025-.034.037l-.037.034C17.702 21.695 14.992 22.9 12 22.9c-2.996 0-5.71-1.21-7.68-3.166-.01-.007-.02-.016-.029-.025l-.027-.03C2.308 17.709 1.1 14.995 1.1 12c0-3 1.212-5.717 3.173-7.688.005-.007.011-.014.018-.02l.025-.023C6.287 2.31 9.002 1.1 12 1.1zm0 12.172L6.233 19.04C7.803 20.327 9.811 21.1 12 21.1c.143 0 .285-.003.426-.01-.998-1.942-.641-4.495.913-6.48L12 13.273zm2.367 7.517l.173-.048c1.195-.347 2.29-.932 3.227-1.701l-3.144-3.144c-1.175 1.627-1.274 3.637-.256 4.893zM2.91 11.576l-.006.16L2.9 12c0 2.189.773 4.198 2.06 5.768L10.728 12l-1.338-1.338c-1.984 1.554-4.537 1.91-6.479.914zm12.985 3.047l3.145 3.144c.805-.982 1.408-2.135 1.748-3.396-1.28-1.023-3.27-.925-4.893.252zm3.145-8.39L13.272 12l1.339 1.338c1.985-1.558 4.525-1.911 6.48-.908l.005-.166L21.1 12c0-2.189-.773-4.197-2.06-5.767zM12 2.9c-.145 0-.289.003-.432.01 1.005 1.954.652 4.494-.906 6.479L12 10.727l5.768-5.766c-1.507-1.236-3.418-1.998-5.504-2.057zM4.96 6.232c-.805.983-1.41 2.138-1.749 3.4 1.256 1.02 3.266.921 4.893-.255zm4.67-3.02l-.17.047c-1.196.347-2.29.933-3.228 1.702l3.145 3.144c1.177-1.622 1.275-3.612.253-4.893z"/>
        </g>
    </g>
</svg>
