<svg width="24" height="24" viewBox="0 0 24 24" fill="none" xmlns="http://www.w3.org/2000/svg">
<path d="M6.12326 6.12362C11.1327 1.11409 17.824 -0.479313 21.1513 2.84803L21.3163 3.02008C24.4244 6.40153 22.8013 12.9524 17.8766 17.8772C12.867 22.886 6.17579 24.4791 2.84876 21.152C-0.479446 17.8248 1.11361 11.1334 6.12326 6.12362ZM6.10641 19.1694L4.83717 20.4382C5.69979 20.9595 6.79528 21.1679 8.01713 21.0816L6.10641 19.1694ZM17.8984 7.37641L14.5854 10.6894L15.2603 11.3637C15.6118 11.7152 15.6118 12.2851 15.2603 12.6365C14.9381 12.9587 14.4324 12.9855 14.0797 12.7171L13.9875 12.6365L13.3134 11.9624L11.9644 13.3114L12.6387 13.9854C12.9901 14.3369 12.9901 14.9067 12.6387 15.2582C12.3165 15.5804 11.8108 15.6072 11.458 15.3387L11.3659 15.2582L10.6914 14.5834L7.37841 17.8964L10.0173 20.5347C10.0607 20.5781 10.0987 20.6248 10.1313 20.6739C12.2601 20.0252 14.5642 18.6437 16.6039 16.6044C18.6445 14.5638 20.0265 12.2583 20.6756 10.1273C20.6594 10.1181 20.644 10.1071 20.629 10.0957L20.5368 10.0151L17.8984 7.37641ZM2.91838 15.9823C2.83187 17.2055 3.04083 18.3021 3.56332 19.1653L4.83341 17.8964L2.91838 15.9823ZM13.8729 3.32559L13.8565 3.32943C11.7303 3.9807 9.43149 5.36094 7.39606 7.3964C5.35607 9.43643 3.97429 11.7409 3.32495 13.8711C3.34291 13.8806 3.35959 13.8924 3.37595 13.9049L3.46811 13.9854L6.10541 16.6234L9.41841 13.3104L8.74433 12.6366C8.39287 12.2851 8.39287 11.7153 8.74435 11.3638C9.06653 11.0416 9.57221 11.0148 9.92497 11.2833L10.0171 11.3638L10.6914 12.0384L12.0404 10.6894L11.366 10.0149C11.0145 9.66345 11.0145 9.09361 11.366 8.74214C11.6882 8.41996 12.1938 8.39311 12.5466 8.6616L12.6388 8.74215L13.3124 9.41641L16.6254 6.10341L13.9876 3.46578C13.944 3.42214 13.9057 3.37513 13.8729 3.32559ZM20.4385 4.83768L19.1714 6.10341L21.0819 8.01296C21.1674 6.79305 20.9589 5.69927 20.4385 4.83768ZM19.1657 3.56346C18.3036 3.04143 17.2084 2.8323 15.9867 2.91805L17.8984 4.83041L19.1657 3.56346Z" fill="white"/>
</svg>
