<svg width="24" height="24" viewBox="0 0 24 24" fill="none" xmlns="http://www.w3.org/2000/svg">
<path d="M21.4252 3.20907L22.1458 3.00113V3.00113L21.4252 3.20907ZM20.7909 2.57481L20.583 3.2954L20.7909 2.57481ZM3.20907 21.4252L3.00113 22.1458H3.00113L3.20907 21.4252ZM2.57481 20.7909L3.2954 20.583L2.57481 20.7909ZM7.46967 15.4697C7.17678 15.7626 7.17678 16.2374 7.46967 16.5303C7.76256 16.8232 8.23744 16.8232 8.53033 16.5303L7.46967 15.4697ZM16.5303 8.53033C16.8232 8.23744 16.8232 7.76256 16.5303 7.46967C16.2374 7.17678 15.7626 7.17678 15.4697 7.46967L16.5303 8.53033ZM11.0303 9.96967C10.7374 9.67678 10.2626 9.67678 9.96967 9.96967C9.67678 10.2626 9.67678 10.7374 9.96967 11.0303L11.0303 9.96967ZM12.9697 14.0303C13.2626 14.3232 13.7374 14.3232 14.0303 14.0303C14.3232 13.7374 14.3232 13.2626 14.0303 12.9697L12.9697 14.0303ZM13.5303 7.46967C13.2374 7.17678 12.7626 7.17678 12.4697 7.46967C12.1768 7.76256 12.1768 8.23744 12.4697 8.53033L13.5303 7.46967ZM15.4697 11.5303C15.7626 11.8232 16.2374 11.8232 16.5303 11.5303C16.8232 11.2374 16.8232 10.7626 16.5303 10.4697L15.4697 11.5303ZM8.53033 12.4697C8.23744 12.1768 7.76256 12.1768 7.46967 12.4697C7.17678 12.7626 7.17678 13.2374 7.46967 13.5303L8.53033 12.4697ZM10.4697 16.5303C10.7626 16.8232 11.2374 16.8232 11.5303 16.5303C11.8232 16.2374 11.8232 15.7626 11.5303 15.4697L10.4697 16.5303ZM2.75 16.7059C2.75 8.99826 8.99826 2.75 16.7059 2.75V1.25C8.16983 1.25 1.25 8.16983 1.25 16.7059H2.75ZM21.25 7.29412C21.25 15.0017 15.0017 21.25 7.29412 21.25V22.75C15.8302 22.75 22.75 15.8302 22.75 7.29412H21.25ZM20.7046 3.41701C21.0596 4.64706 21.25 5.94771 21.25 7.29412H22.75C22.75 5.80559 22.5394 4.36499 22.1458 3.00113L20.7046 3.41701ZM16.7059 2.75C18.0523 2.75 19.3529 2.94045 20.583 3.2954L20.9989 1.85421C19.635 1.46064 18.1944 1.25 16.7059 1.25V2.75ZM7.29412 21.25C5.94771 21.25 4.64706 21.0596 3.41701 20.7046L3.00113 22.1458C4.365 22.5394 5.8056 22.75 7.29412 22.75V21.25ZM3.2954 20.583C2.94045 19.3529 2.75 18.0523 2.75 16.7059H1.25C1.25 18.1944 1.46064 19.635 1.85421 20.9989L3.2954 20.583ZM3.41701 20.7046C3.35813 20.6876 3.31239 20.6419 3.2954 20.583L1.85421 20.9989C2.01411 21.553 2.44702 21.9859 3.00113 22.1458L3.41701 20.7046ZM22.1458 3.00113C21.9859 2.44702 21.553 2.01411 20.9989 1.85421L20.583 3.2954C20.6419 3.31239 20.6876 3.35813 20.7046 3.41701L22.1458 3.00113ZM8.53033 16.5303L16.5303 8.53033L15.4697 7.46967L7.46967 15.4697L8.53033 16.5303ZM9.96967 11.0303L12.9697 14.0303L14.0303 12.9697L11.0303 9.96967L9.96967 11.0303ZM12.4697 8.53033L15.4697 11.5303L16.5303 10.4697L13.5303 7.46967L12.4697 8.53033ZM7.46967 13.5303L10.4697 16.5303L11.5303 15.4697L8.53033 12.4697L7.46967 13.5303ZM1.46967 14.5303L9.46967 22.5303L10.5303 21.4697L2.53033 13.4697L1.46967 14.5303ZM13.4697 2.53033L21.4697 10.5303L22.5303 9.46967L14.5303 1.46967L13.4697 2.53033Z" fill="white"/>
</svg>
