<svg width="24" height="24" viewBox="0 0 24 24" fill="none" xmlns="http://www.w3.org/2000/svg">
<path d="M21.2043 12.9259C21.1634 13.3381 21.4643 13.7054 21.8765 13.7463C22.2887 13.7873 22.656 13.4863 22.697 13.0741L21.2043 12.9259ZM15.2247 22.2577C15.6199 22.1336 15.8397 21.7126 15.7155 21.3175C15.5914 20.9223 15.1704 20.7025 14.7753 20.8267L15.2247 22.2577ZM14.9697 16.0303C15.2626 16.3232 15.7374 16.3232 16.0303 16.0303C16.3232 15.7374 16.3232 15.2626 16.0303 14.9697L14.9697 16.0303ZM5.53033 4.46967C5.23744 4.17678 4.76256 4.17678 4.46967 4.46967C4.17678 4.76256 4.17678 5.23744 4.46967 5.53033L5.53033 4.46967ZM1.25 12C1.25 17.9371 6.06294 22.75 12 22.75V21.25C6.89137 21.25 2.75 17.1086 2.75 12H1.25ZM22.75 12C22.75 6.06294 17.9371 1.25 12 1.25V2.75C17.1086 2.75 21.25 6.89137 21.25 12H22.75ZM12 1.25C6.06294 1.25 1.25 6.06294 1.25 12H2.75C2.75 6.89137 6.89137 2.75 12 2.75V1.25ZM22.697 13.0741C22.7321 12.7206 22.75 12.3623 22.75 12H21.25C21.25 12.3127 21.2345 12.6216 21.2043 12.9259L22.697 13.0741ZM12 22.75C13.1223 22.75 14.2058 22.5778 15.2247 22.2577L14.7753 20.8267C13.9001 21.1015 12.9681 21.25 12 21.25V22.75ZM9.77292 14.227C7.56372 12.0178 4.20587 11.6609 1.6247 13.1528L2.37532 14.4514C4.3833 13.2909 6.99532 13.5707 8.71226 15.2877L9.77292 14.227ZM10.8472 22.3753C12.3391 19.7941 11.9821 16.4363 9.77292 14.227L8.71226 15.2877C10.4292 17.0047 10.7091 19.6167 9.54849 21.6247L10.8472 22.3753ZM13.1527 1.62468C11.6608 4.20586 12.0177 7.56375 14.2269 9.77297L15.2876 8.71231C13.5706 6.99535 13.2907 4.38331 14.4514 2.37532L13.1527 1.62468ZM14.2269 9.77297C16.4362 11.9822 19.7941 12.3391 22.3753 10.8472L21.6246 9.54851C19.6166 10.7092 17.0046 10.4293 15.2876 8.71231L14.2269 9.77297ZM16.0303 14.9697L5.53033 4.46967L4.46967 5.53033L14.9697 16.0303L16.0303 14.9697ZM18.4697 4.46967L4.46967 18.4697L5.53033 19.5303L19.5303 5.53033L18.4697 4.46967Z" fill="white"/>
<path d="M22 17.5V17.5C22 16.6716 21.3284 16 20.5 16H19.7143C18.7675 16 18 16.7675 18 17.7143V20.2857C18 21.2325 18.7675 22 19.7143 22H20.5C21.3284 22 22 21.3284 22 20.5V20.5" stroke="white" stroke-width="1.5" stroke-linecap="round"/>
</svg>
