<svg width="24" height="24" viewBox="0 0 24 24" fill="none" xmlns="http://www.w3.org/2000/svg">
<path d="M2.88587 11.8569L2.24275 11.471L1.47101 12.7572L2.11413 13.1431L2.88587 11.8569ZM3.28849 16.7628L3.05132 17.4743L4.47434 17.9487L4.71151 17.2372L3.28849 16.7628ZM21.8859 13.1431L22.529 12.7572L21.7572 11.471L21.1141 11.8569L21.8859 13.1431ZM19.2885 17.2372L19.5257 17.9487L20.9487 17.4743L20.7115 16.7628L19.2885 17.2372ZM12.75 16.5V15.75H11.25V16.5H12.75ZM9.11413 20.3569L8.47101 20.7428L9.24275 22.029L9.88587 21.6431L9.11413 20.3569ZM14.1141 21.6431L14.7572 22.029L15.529 20.7428L14.8859 20.3569L14.1141 21.6431ZM12 16L11.55 16.6C11.8167 16.8 12.1833 16.8 12.45 16.6L12 16ZM19.5 6.75H20.25V5.25H19.5V6.75ZM16.2115 2.76283L15.9743 2.05132L14.5513 2.52566L14.7885 3.23717L16.2115 2.76283ZM4.5 5.25H3.75V6.75H4.5V5.25ZM9.21151 3.23717L9.44868 2.52566L8.02566 2.05132L7.78849 2.76283L9.21151 3.23717ZM7.76283 12.2885L4.76283 13.2885L5.23717 14.7115L8.23717 13.7115L7.76283 12.2885ZM5.38587 13.3569L2.88587 11.8569L2.11413 13.1431L4.61413 14.6431L5.38587 13.3569ZM4.28849 13.7628L3.28849 16.7628L4.71151 17.2372L5.71151 14.2372L4.28849 13.7628ZM15.7628 13.7115L18.7628 14.7115L19.2372 13.2885L16.2372 12.2885L15.7628 13.7115ZM19.3859 14.6431L21.8859 13.1431L21.1141 11.8569L18.6141 13.3569L19.3859 14.6431ZM18.2885 14.2372L19.2885 17.2372L20.7115 16.7628L19.7115 13.7628L18.2885 14.2372ZM11.25 16.5V19.5H12.75V16.5H11.25ZM11.6141 18.8569L9.11413 20.3569L9.88587 21.6431L12.3859 20.1431L11.6141 18.8569ZM11.6141 20.1431L14.1141 21.6431L14.8859 20.3569L12.3859 18.8569L11.6141 20.1431ZM9.5 9.25H14.5V7.75H9.5V9.25ZM13.7885 8.73717L15.2885 13.2372L16.7115 12.7628L15.2115 8.26283L13.7885 8.73717ZM15.55 12.4L11.55 15.4L12.45 16.6L16.45 13.6L15.55 12.4ZM12.45 15.4L8.45 12.4L7.55 13.6L11.55 16.6L12.45 15.4ZM8.71151 13.2372L10.2115 8.73717L8.78849 8.26283L7.28849 12.7628L8.71151 13.2372ZM15.0857 8.96852L17.0857 6.46852L15.9143 5.53148L13.9143 8.03148L15.0857 8.96852ZM16.5 6.75H19.5V5.25H16.5V6.75ZM17.2115 5.76283L16.2115 2.76283L14.7885 3.23717L15.7885 6.23717L17.2115 5.76283ZM10.0857 8.03148L8.08565 5.53148L6.91435 6.46852L8.91435 8.96852L10.0857 8.03148ZM7.5 5.25H4.5V6.75H7.5V5.25ZM8.21151 6.23717L9.21151 3.23717L7.78849 2.76283L6.78849 5.76283L8.21151 6.23717ZM1.25 12C1.25 17.9371 6.06294 22.75 12 22.75V21.25C6.89137 21.25 2.75 17.1086 2.75 12H1.25ZM12 22.75C17.9371 22.75 22.75 17.9371 22.75 12H21.25C21.25 17.1086 17.1086 21.25 12 21.25V22.75ZM22.75 12C22.75 6.06294 17.9371 1.25 12 1.25V2.75C17.1086 2.75 21.25 6.89137 21.25 12H22.75ZM12 1.25C6.06294 1.25 1.25 6.06294 1.25 12H2.75C2.75 6.89137 6.89137 2.75 12 2.75V1.25Z" fill="white"/>
</svg>
