<svg width="24" height="24" viewBox="0 0 24 24" fill="none" xmlns="http://www.w3.org/2000/svg">
<path d="M9.11092 14.7677L9.64125 14.2374C9.50059 14.0968 9.30983 14.0177 9.11092 14.0177C8.912 14.0177 8.72124 14.0968 8.58059 14.2374L9.11092 14.7677ZM11.2322 16.8891L11.7626 17.4194C12.0555 17.1265 12.0555 16.6516 11.7626 16.3587L11.2322 16.8891ZM6.28249 21.8388L5.75216 22.3691C6.04505 22.662 6.51993 22.662 6.81282 22.3691L6.28249 21.8388ZM4.16117 19.7175L3.63084 19.1872C3.49019 19.3278 3.41117 19.5186 3.41117 19.7175C3.41117 19.9164 3.49019 20.1072 3.63084 20.2478L4.16117 19.7175ZM7.25 5.99998C7.25 6.69034 6.69036 7.24999 6 7.24999V8.74999C7.51878 8.74999 8.75 7.51877 8.75 5.99998H7.25ZM6 7.24999C5.30964 7.24999 4.75 6.69034 4.75 5.99998H3.25C3.25 7.51877 4.48122 8.74999 6 8.74999V7.24999ZM4.75 5.99998C4.75 5.30963 5.30964 4.74998 6 4.74998V3.24998C4.48122 3.24998 3.25 4.4812 3.25 5.99998H4.75ZM6 4.74998C6.69036 4.74998 7.25 5.30963 7.25 5.99998H8.75C8.75 4.4812 7.51878 3.24998 6 3.24998V4.74998ZM8.58059 15.2981L10.7019 17.4194L11.7626 16.3587L9.64125 14.2374L8.58059 15.2981ZM10.7019 16.3587L5.75216 21.3085L6.81282 22.3691L11.7626 17.4194L10.7019 16.3587ZM6.81282 21.3085L4.6915 19.1872L3.63084 20.2478L5.75216 22.3691L6.81282 21.3085ZM4.6915 20.2478L9.64125 15.2981L8.58059 14.2374L3.63084 19.1872L4.6915 20.2478ZM19.5407 12.4696C17.3958 14.6145 14.3965 14.75 12.8232 13.1767L11.7626 14.2374C14.0945 16.5694 18.06 16.0717 20.6014 13.5303L19.5407 12.4696ZM12.8232 13.1767C11.2499 11.6034 11.3854 8.60413 13.5303 6.45923L12.4697 5.39857C9.92828 7.93997 9.43062 11.9055 11.7626 14.2374L12.8232 13.1767ZM13.5303 6.45923C15.6752 4.31434 18.6746 4.17883 20.2478 5.75213L21.3085 4.69147C18.9766 2.35952 15.0111 2.85718 12.4697 5.39857L13.5303 6.45923ZM20.2478 5.75213C21.8211 7.32543 21.6856 10.3247 19.5407 12.4696L20.6014 13.5303C23.1428 10.9889 23.6405 7.02341 21.3085 4.69147L20.2478 5.75213ZM11.409 17.0658C12.2391 16.2358 13.2202 15.6969 14.1993 15.4517L13.8349 13.9966C12.5856 14.3095 11.3655 14.988 10.3483 16.0052L11.409 17.0658ZM9.99479 15.6516C11.012 14.6344 11.6905 13.4144 12.0033 12.1651L10.5483 11.8007C10.3031 12.7797 9.76418 13.7609 8.93413 14.591L9.99479 15.6516Z" fill="white"/>
</svg>
