<svg width="25" height="26" viewBox="0 0 25 26" fill="none" xmlns="http://www.w3.org/2000/svg">
<path fill-rule="evenodd" clip-rule="evenodd" d="M21.5804 8.2028C22.3282 9.66762 22.75 11.3266 22.75 13.0842C22.75 19.0212 17.9371 23.8342 12 23.8342C6.06294 23.8342 1.25 19.0212 1.25 13.0842C1.25 7.14711 6.06294 2.33417 12 2.33417C13.6067 2.33417 15.1311 2.68665 16.5 3.3185V5.00064C15.1681 4.25758 13.6335 3.83417 12 3.83417C6.89137 3.83417 2.75 7.97553 2.75 13.0842C2.75 18.1928 6.89137 22.3342 12 22.3342C17.1086 22.3342 21.25 18.1928 21.25 13.0842C21.25 11.387 20.7929 9.79655 19.9951 8.42927L21.5804 8.2028ZM14.6007 7.39929C13.8088 7.03644 12.928 6.83417 12 6.83417C8.54822 6.83417 5.75 9.63239 5.75 13.0842C5.75 16.5359 8.54822 19.3342 12 19.3342C15.4518 19.3342 18.25 16.5359 18.25 13.0842C18.25 12.1112 18.0277 11.1901 17.631 10.369L16.4848 11.5152C16.6566 12.0064 16.75 12.5344 16.75 13.0842C16.75 15.7075 14.6234 17.8342 12 17.8342C9.37665 17.8342 7.25 15.7075 7.25 13.0842C7.25 10.4608 9.37665 8.33417 12 8.33417C12.503 8.33417 12.9878 8.41236 13.4428 8.55724L14.6007 7.39929Z" fill="#FBF9FF"/>
<path d="M18.5 6.5L19.1278 3.58417L21 1.5L20.5 4.5L23.5 4L21.5 5.87215L18.5 6.5Z" fill="#FBF9FF"/>
<path d="M12 13L18.5 6.5M18.5 6.5L19.1278 3.58417L21 1.5L20.5 4.5M18.5 6.5L21.5 5.87215L23.5 4L20.5 4.5M18.5 6.5L20.5 4.5" stroke="#FBF9FF" stroke-width="1.25" stroke-linecap="round" stroke-linejoin="round"/>
</svg>
