<svg width="24" height="24" viewBox="0 0 24 24" fill="none" xmlns="http://www.w3.org/2000/svg">
<path d="M8 22H7.25C7.25 22.4142 7.58579 22.75 8 22.75V22ZM16 11.75C16.4142 11.75 16.75 11.4142 16.75 11C16.75 10.5858 16.4142 10.25 16 10.25V11.75ZM18 22V22.75C18.4142 22.75 18.75 22.4142 18.75 22H18ZM19.588 14.9592L18.952 14.5617L19.588 14.9592ZM5.75736 15.2574L5.22703 15.7877L5.75736 15.2574ZM8.75 22V17.5H7.25V22H8.75ZM8.53033 16.9697L6.28769 14.727L5.22703 15.7877L7.46967 18.0303L8.53033 16.9697ZM4.75 11.0147V9H3.25V11.0147H4.75ZM6 7.75H7V6.25H6V7.75ZM6.25 7V8H7.75V7H6.25ZM10 11.75H16V10.25H10V11.75ZM7.75 7V6H6.25V7H7.75ZM11 2.75H15.5V1.25H11V2.75ZM19.75 7V11.7792H21.25V7H19.75ZM18.952 14.5617L17.364 17.1025L18.636 17.8975L20.224 15.3567L18.952 14.5617ZM17.25 17.5V22H18.75V17.5H17.25ZM18 21.25H8V22.75H18V21.25ZM8 18.25H18V16.75H8V18.25ZM19.75 11.7792C19.75 12.7632 19.4735 13.7273 18.952 14.5617L20.224 15.3567C20.8945 14.2839 21.25 13.0443 21.25 11.7792H19.75ZM6.25 8C6.25 10.0711 7.92893 11.75 10 11.75V10.25C8.75736 10.25 7.75 9.24264 7.75 8H6.25ZM15.5 2.75C17.8472 2.75 19.75 4.65279 19.75 7H21.25C21.25 3.82436 18.6756 1.25 15.5 1.25V2.75ZM4.75 9C4.75 8.30964 5.30964 7.75 6 7.75V6.25C4.48122 6.25 3.25 7.48122 3.25 9H4.75ZM7.75 6C7.75 4.20507 9.20507 2.75 11 2.75V1.25C8.37665 1.25 6.25 3.37665 6.25 6H7.75ZM6.28769 14.727C5.30312 13.7425 4.75 12.4071 4.75 11.0147H3.25C3.25 12.8049 3.96116 14.5218 5.22703 15.7877L6.28769 14.727Z" fill="white"/>
</svg>
